STARTFONT 2.1
FONT -Monotype-Bookman Old Style-Bold-I-Normal--14-100-100-100-P-80-iso8859-2
SIZE 10 100 100
FONTBOUNDINGBOX 24 18 -4 -4

STARTPROPERTIES 24
FOUNDRY "Monotype"
FAMILY_NAME "Bookman Old Style"
WEIGHT_NAME "Bold"
SLANT "I"
SETWIDTH_NAME "Normal"
ADD_STYLE_NAME ""
PIXEL_SIZE 14
POINT_SIZE 100
RESOLUTION_X 100
RESOLUTION_Y 100
SPACING "P"
AVERAGE_WIDTH 80
CHARSET_REGISTRY "iso8859"
CHARSET_ENCODING "2"
FACE_NAME "Bookman Old Style Bold Italic ISO Latin2"
_DEC_DEVICE_FONTNAMES "PS=bookmanoldstyle-bit-lat2"
COPYRIGHT "Copyright (c) 1994 Monotype Typography Ltd."
CAP_HEIGHT 12
X_HEIGHT 9
WEIGHT 10
QUAD_WIDTH 9
DEFAULT_CHAR 160
FONT_DESCENT 4
FONT_ASCENT 14
ENDPROPERTIES

CHARS 191

STARTCHAR space
ENCODING 32
SWIDTH 340 0
DWIDTH 5 0
BBX 0 0 0 0
BITMAP
ENDCHAR

STARTCHAR exclam
ENCODING 33
SWIDTH 320 0
DWIDTH 4 0
BBX 4 10 1 0
BITMAP
30
30
30
20
60
60
60
00
C0
C0
ENDCHAR

STARTCHAR quotedbl
ENCODING 34
SWIDTH 380 0
DWIDTH 5 0
BBX 5 4 1 6
BITMAP
48
D8
D8
90
ENDCHAR

STARTCHAR numbersign
ENCODING 35
SWIDTH 600 0
DWIDTH 8 0
BBX 8 10 0 0
BITMAP
36
36
36
7F
36
FF
6C
6C
6C
6C
ENDCHAR

STARTCHAR dollar
ENCODING 36
SWIDTH 680 0
DWIDTH 10 0
BBX 8 14 1 -2
BITMAP
08
08
1D
37
63
70
3C
0E
07
C3
E6
BC
10
10
ENDCHAR

STARTCHAR percent
ENCODING 37
SWIDTH 880 0
DWIDTH 12 0
BBX 12 10 1 0
BITMAP
3860
6C40
CC80
D900
7200
04E0
09B0
1330
2360
61C0
ENDCHAR

STARTCHAR ampersand
ENCODING 38
SWIDTH 980 0
DWIDTH 14 0
BBX 13 10 2 0
BITMAP
1E00
3B00
3300
1E00
3CF0
6E60
C7C0
C398
E7B8
7DF0
ENDCHAR

STARTCHAR quoteright
ENCODING 39
SWIDTH 320 0
DWIDTH 4 0
BBX 3 5 1 5
BITMAP
60
60
20
40
80
ENDCHAR

STARTCHAR parenleft
ENCODING 40
SWIDTH 260 0
DWIDTH 4 0
BBX 5 13 1 -3
BITMAP
08
18
30
60
60
60
C0
C0
C0
C0
C0
C0
40
ENDCHAR

STARTCHAR parenright
ENCODING 41
SWIDTH 260 0
DWIDTH 4 0
BBX 5 13 0 -3
BITMAP
10
18
18
18
18
18
18
30
30
30
60
C0
80
ENDCHAR

STARTCHAR asterisk
ENCODING 42
SWIDTH 460 0
DWIDTH 6 0
BBX 5 5 1 5
BITMAP
20
20
F8
60
B0
ENDCHAR

STARTCHAR plus
ENCODING 43
SWIDTH 600 0
DWIDTH 8 0
BBX 7 7 1 1
BITMAP
10
10
10
FE
10
10
10
ENDCHAR

STARTCHAR comma
ENCODING 44
SWIDTH 340 0
DWIDTH 5 0
BBX 4 5 0 -3
BITMAP
30
30
20
40
80
ENDCHAR

STARTCHAR minus
ENCODING 45
SWIDTH 600 0
DWIDTH 8 0
BBX 7 1 2 4
BITMAP
FE
ENDCHAR

STARTCHAR period
ENCODING 46
SWIDTH 340 0
DWIDTH 5 0
BBX 2 2 2 0
BITMAP
C0
C0
ENDCHAR

STARTCHAR slash
ENCODING 47
SWIDTH 360 0
DWIDTH 8 0
BBX 8 13 1 -3
BITMAP
03
06
06
0C
0C
18
18
30
30
60
60
C0
C0
ENDCHAR

STARTCHAR zero
ENCODING 48
SWIDTH 680 0
DWIDTH 10 0
BBX 8 10 2 0
BITMAP
1E
37
63
63
C3
C3
C6
C6
EC
78
ENDCHAR

STARTCHAR one
ENCODING 49
SWIDTH 680 0
DWIDTH 10 0
BBX 4 10 4 0
BITMAP
10
F0
30
30
30
60
60
60
60
F0
ENDCHAR

STARTCHAR two
ENCODING 50
SWIDTH 680 0
DWIDTH 10 0
BBX 9 10 1 0
BITMAP
1F00
3380
6180
4180
0380
0700
0C00
3880
7180
FF00
ENDCHAR

STARTCHAR three
ENCODING 51
SWIDTH 680 0
DWIDTH 10 0
BBX 8 10 2 0
BITMAP
1E
37
63
06
1C
0E
06
C6
EE
7C
ENDCHAR

STARTCHAR four
ENCODING 52
SWIDTH 680 0
DWIDTH 10 0
BBX 9 10 2 0
BITMAP
0700
0F00
1B00
3300
6600
C600
FF80
0600
0C00
0C00
ENDCHAR

STARTCHAR five
ENCODING 53
SWIDTH 680 0
DWIDTH 10 0
BBX 9 10 1 0
BITMAP
3F80
3F00
2000
3800
6E00
0700
0300
C300
E600
7C00
ENDCHAR

STARTCHAR six
ENCODING 54
SWIDTH 680 0
DWIDTH 10 0
BBX 9 10 2 0
BITMAP
0780
1F00
3800
7C00
6600
C300
C300
C300
E600
7C00
ENDCHAR

STARTCHAR seven
ENCODING 55
SWIDTH 680 0
DWIDTH 10 0
BBX 9 10 2 0
BITMAP
7F80
FF80
C300
8600
0C00
1C00
1800
3800
3000
7000
ENDCHAR

STARTCHAR eight
ENCODING 56
SWIDTH 680 0
DWIDTH 10 0
BBX 9 10 1 0
BITMAP
1F00
3980
3180
3B00
1E00
3E00
6700
C300
C700
7E00
ENDCHAR

STARTCHAR nine
ENCODING 57
SWIDTH 680 0
DWIDTH 10 0
BBX 9 10 2 0
BITMAP
1F00
3380
6180
6180
6180
3300
1F00
0E00
7C00
F000
ENDCHAR

STARTCHAR colon
ENCODING 58
SWIDTH 340 0
DWIDTH 5 0
BBX 3 6 2 0
BITMAP
60
60
00
00
C0
C0
ENDCHAR

STARTCHAR semicolon
ENCODING 59
SWIDTH 340 0
DWIDTH 5 0
BBX 5 9 0 -3
BITMAP
18
18
00
00
30
30
20
40
80
ENDCHAR

STARTCHAR less
ENCODING 60
SWIDTH 620 0
DWIDTH 9 0
BBX 7 8 2 1
BITMAP
02
06
38
E0
E0
38
06
02
ENDCHAR

STARTCHAR equal
ENCODING 61
SWIDTH 600 0
DWIDTH 8 0
BBX 7 4 1 3
BITMAP
FE
00
00
FE
ENDCHAR

STARTCHAR greater
ENCODING 62
SWIDTH 620 0
DWIDTH 9 0
BBX 7 8 2 1
BITMAP
80
C0
38
0E
0E
38
C0
80
ENDCHAR

STARTCHAR question
ENCODING 63
SWIDTH 620 0
DWIDTH 9 0
BBX 7 10 2 0
BITMAP
7C
EE
46
06
1C
78
60
00
60
60
ENDCHAR

STARTCHAR at
ENCODING 64
SWIDTH 780 0
DWIDTH 11 0
BBX 12 13 0 -3
BITMAP
0FC0
1020
2010
4290
4D90
8990
9910
9B20
9F60
4990
6020
18C0
0700
ENDCHAR

STARTCHAR A
ENCODING 65
SWIDTH 720 0
DWIDTH 10 0
BBX 10 10 0 0
BITMAP
0300
0700
0780
0D80
0D80
1980
3F80
3180
6180
F3C0
ENDCHAR

STARTCHAR B
ENCODING 66
SWIDTH 720 0
DWIDTH 10 0
BBX 10 10 0 0
BITMAP
3F80
19C0
18C0
3180
3F00
3380
3180
6180
6380
FF00
ENDCHAR

STARTCHAR C
ENCODING 67
SWIDTH 700 0
DWIDTH 10 0
BBX 9 10 1 0
BITMAP
1F00
7380
6180
E000
C000
C000
C000
C300
E600
7C00
ENDCHAR

STARTCHAR D
ENCODING 68
SWIDTH 760 0
DWIDTH 11 0
BBX 11 10 0 0
BITMAP
3F80
19C0
18E0
3060
3060
3060
3060
60C0
6180
FF00
ENDCHAR

STARTCHAR E
ENCODING 69
SWIDTH 720 0
DWIDTH 10 0
BBX 11 10 0 0
BITMAP
3FC0
18E0
1860
3100
3F00
3300
3200
60C0
61C0
FF80
ENDCHAR

STARTCHAR F
ENCODING 70
SWIDTH 660 0
DWIDTH 9 0
BBX 10 10 0 0
BITMAP
3F80
19C0
18C0
3100
3F00
3300
3200
6000
6000
F000
ENDCHAR

STARTCHAR G
ENCODING 71
SWIDTH 760 0
DWIDTH 11 0
BBX 10 10 1 0
BITMAP
1F00
7380
6180
6000
C000
C3C0
C180
C180
E700
7E00
ENDCHAR

STARTCHAR H
ENCODING 72
SWIDTH 800 0
DWIDTH 11 0
BBX 12 10 0 0
BITMAP
3CF0
1860
1860
30C0
3FC0
30C0
30C0
6180
6180
F3C0
ENDCHAR

STARTCHAR I
ENCODING 73
SWIDTH 380 0
DWIDTH 5 0
BBX 6 10 0 0
BITMAP
3C
18
18
30
30
30
30
60
60
F0
ENDCHAR

STARTCHAR J
ENCODING 74
SWIDTH 620 0
DWIDTH 8 0
BBX 9 10 0 0
BITMAP
0780
0300
0300
0600
0600
0600
0600
8C00
CC00
7800
ENDCHAR

STARTCHAR K
ENCODING 75
SWIDTH 780 0
DWIDTH 11 0
BBX 11 10 0 0
BITMAP
3DE0
18C0
1980
3300
3600
3E00
3600
6300
6380
F7C0
ENDCHAR

STARTCHAR L
ENCODING 76
SWIDTH 640 0
DWIDTH 9 0
BBX 9 10 0 0
BITMAP
3C00
1800
1800
3000
3000
3000
3000
6180
6380
FF00
ENDCHAR

STARTCHAR M
ENCODING 77
SWIDTH 860 0
DWIDTH 12 0
BBX 14 10 0 0
BITMAP
3C3C
1C78
1C58
36D8
27B0
2730
6330
4660
4660
E6F0
ENDCHAR

STARTCHAR N
ENCODING 78
SWIDTH 740 0
DWIDTH 11 0
BBX 12 10 0 0
BITMAP
3C70
1C20
1E20
3660
2740
2340
6340
43C0
4180
E180
ENDCHAR

STARTCHAR O
ENCODING 79
SWIDTH 760 0
DWIDTH 11 0
BBX 10 10 1 0
BITMAP
1F00
3180
60C0
60C0
C0C0
C0C0
C180
C180
6300
3E00
ENDCHAR

STARTCHAR P
ENCODING 80
SWIDTH 640 0
DWIDTH 9 0
BBX 10 10 0 0
BITMAP
3F00
1980
18C0
30C0
3180
3F00
3000
6000
6000
F000
ENDCHAR

STARTCHAR Q
ENCODING 81
SWIDTH 760 0
DWIDTH 11 0
BBX 10 13 1 -3
BITMAP
1F00
3180
60C0
60C0
C0C0
C0C0
C180
C180
6300
3E00
1800
1D00
0E00
ENDCHAR

STARTCHAR R
ENCODING 82
SWIDTH 740 0
DWIDTH 10 0
BBX 11 10 0 0
BITMAP
3F80
18C0
1860
3060
30C0
3F80
3300
6380
6180
F1E0
ENDCHAR

STARTCHAR S
ENCODING 83
SWIDTH 700 0
DWIDTH 10 0
BBX 9 10 1 0
BITMAP
3E80
7380
6180
7800
3E00
0F00
0700
C300
E700
BE00
ENDCHAR

STARTCHAR T
ENCODING 84
SWIDTH 700 0
DWIDTH 10 0
BBX 10 10 1 0
BITMAP
7F80
EDC0
CCC0
1800
1800
1800
3000
3000
3000
7800
ENDCHAR

STARTCHAR U
ENCODING 85
SWIDTH 740 0
DWIDTH 11 0
BBX 11 10 1 0
BITMAP
78E0
3040
3040
60C0
6080
6080
C180
C100
E300
7E00
ENDCHAR

STARTCHAR V
ENCODING 86
SWIDTH 660 0
DWIDTH 8 0
BBX 9 10 1 0
BITMAP
F780
6300
6300
6600
6600
6C00
6C00
3800
3000
3000
ENDCHAR

STARTCHAR W
ENCODING 87
SWIDTH 1000 0
DWIDTH 13 0
BBX 14 10 1 0
BITMAP
F7BC
6318
6318
6730
6730
6F60
6B60
39C0
3180
3180
ENDCHAR

STARTCHAR X
ENCODING 88
SWIDTH 740 0
DWIDTH 10 0
BBX 12 10 0 0
BITMAP
3EF0
1C60
0CC0
0F80
0700
0F00
1B00
3180
61C0
F3E0
ENDCHAR

STARTCHAR Y
ENCODING 89
SWIDTH 660 0
DWIDTH 9 0
BBX 9 10 2 0
BITMAP
F780
6300
6600
6600
6C00
3800
3800
3000
3000
7800
ENDCHAR

STARTCHAR Z
ENCODING 90
SWIDTH 680 0
DWIDTH 10 0
BBX 10 10 1 0
BITMAP
3FC0
7380
6700
0E00
0C00
1C00
3800
7180
E380
FF00
ENDCHAR

STARTCHAR bracketleft
ENCODING 91
SWIDTH 260 0
DWIDTH 4 0
BBX 6 13 0 -3
BITMAP
1C
18
10
30
30
30
20
60
60
60
40
C0
E0
ENDCHAR

STARTCHAR backslash
ENCODING 92
SWIDTH 580 0
DWIDTH 8 0
BBX 8 13 1 -3
BITMAP
C0
C0
60
60
30
30
18
18
0C
0C
06
06
03
ENDCHAR

STARTCHAR bracketright
ENCODING 93
SWIDTH 260 0
DWIDTH 4 0
BBX 6 13 0 -3
BITMAP
1C
0C
08
18
18
18
10
30
30
30
20
60
E0
ENDCHAR

STARTCHAR asciicircum
ENCODING 94
SWIDTH 620 0
DWIDTH 9 0
BBX 7 6 1 4
BITMAP
10
38
28
6C
44
C6
ENDCHAR

STARTCHAR underscore
ENCODING 95
SWIDTH 500 0
DWIDTH 7 0
BBX 7 1 0 -2
BITMAP
FE
ENDCHAR

STARTCHAR quoteleft
ENCODING 96
SWIDTH 320 0
DWIDTH 4 0
BBX 4 5 1 5
BITMAP
10
20
40
C0
C0
ENDCHAR

STARTCHAR a
ENCODING 97
SWIDTH 680 0
DWIDTH 10 0
BBX 9 7 1 0
BITMAP
3D00
6300
C300
C600
C600
EE80
7B00
ENDCHAR

STARTCHAR b
ENCODING 98
SWIDTH 600 0
DWIDTH 8 0
BBX 7 10 1 0
BITMAP
10
70
30
6C
7E
66
C6
C6
CC
B8
ENDCHAR

STARTCHAR c
ENCODING 99
SWIDTH 560 0
DWIDTH 8 0
BBX 7 7 1 0
BITMAP
1C
76
62
C0
C4
EC
78
ENDCHAR

STARTCHAR d
ENCODING 100
SWIDTH 680 0
DWIDTH 10 0
BBX 9 10 1 0
BITMAP
0080
0380
0180
1D80
7300
E300
C300
C600
EE80
7300
ENDCHAR

STARTCHAR e
ENCODING 101
SWIDTH 560 0
DWIDTH 8 0
BBX 7 7 1 0
BITMAP
3C
66
CC
F8
C4
EC
78
ENDCHAR

STARTCHAR f
ENCODING 102
SWIDTH 420 0
DWIDTH 6 0
BBX 11 13 -2 -3
BITMAP
01C0
0360
0600
1F80
0600
0600
0C00
0C00
0C00
1800
1800
D800
7000
ENDCHAR

STARTCHAR g
ENCODING 103
SWIDTH 620 0
DWIDTH 9 0
BBX 9 10 0 -3
BITMAP
0E80
3B80
7300
6300
6300
7600
3E00
0600
CC00
7800
ENDCHAR

STARTCHAR h
ENCODING 104
SWIDTH 700 0
DWIDTH 10 0
BBX 9 10 1 0
BITMAP
1000
7000
3000
6600
6F00
7300
6300
C600
C680
C300
ENDCHAR

STARTCHAR i
ENCODING 105
SWIDTH 380 0
DWIDTH 5 0
BBX 4 10 1 0
BITMAP
30
30
00
20
E0
60
60
C0
D0
60
ENDCHAR

STARTCHAR j
ENCODING 106
SWIDTH 320 0
DWIDTH 4 0
BBX 8 13 -3 -3
BITMAP
03
03
00
02
0E
06
06
0C
0C
0C
18
D8
70
ENDCHAR

STARTCHAR k
ENCODING 107
SWIDTH 700 0
DWIDTH 10 0
BBX 9 11 1 0
BITMAP
1000
7000
3000
3000
6700
6D80
7800
6C00
C600
C680
C300
ENDCHAR

STARTCHAR l
ENCODING 108
SWIDTH 380 0
DWIDTH 5 0
BBX 4 10 1 0
BITMAP
10
70
30
60
60
60
C0
C0
D0
60
ENDCHAR

STARTCHAR m
ENCODING 109
SWIDTH 960 0
DWIDTH 13 0
BBX 12 7 1 0
BITMAP
26C0
FFE0
6660
6660
CCC0
CCD0
CC60
ENDCHAR

STARTCHAR n
ENCODING 110
SWIDTH 680 0
DWIDTH 10 0
BBX 9 7 1 0
BITMAP
2E00
F700
6300
6300
C600
C680
C300
ENDCHAR

STARTCHAR o
ENCODING 111
SWIDTH 600 0
DWIDTH 8 0
BBX 7 7 1 0
BITMAP
3C
66
C6
C6
C6
CC
78
ENDCHAR

STARTCHAR p
ENCODING 112
SWIDTH 660 0
DWIDTH 9 0
BBX 9 10 0 -3
BITMAP
1700
7B80
3180
3180
3180
3300
6E00
6000
6000
F000
ENDCHAR

STARTCHAR q
ENCODING 113
SWIDTH 620 0
DWIDTH 9 0
BBX 8 10 1 -3
BITMAP
1D
77
E3
C6
C6
E6
7C
0C
0C
1E
ENDCHAR

STARTCHAR r
ENCODING 114
SWIDTH 500 0
DWIDTH 7 0
BBX 7 7 1 0
BITMAP
36
FC
30
30
60
60
60
ENDCHAR

STARTCHAR s
ENCODING 115
SWIDTH 540 0
DWIDTH 8 0
BBX 8 7 1 0
BITMAP
3E
63
71
3C
8E
C6
7C
ENDCHAR

STARTCHAR t
ENCODING 116
SWIDTH 440 0
DWIDTH 6 0
BBX 5 9 2 0
BITMAP
10
30
F8
60
60
C0
C0
D0
60
ENDCHAR

STARTCHAR u
ENCODING 117
SWIDTH 680 0
DWIDTH 10 0
BBX 9 7 1 0
BITMAP
2300
E300
6300
C600
C600
E680
7B00
ENDCHAR

STARTCHAR v
ENCODING 118
SWIDTH 540 0
DWIDTH 8 0
BBX 7 7 1 0
BITMAP
24
EE
66
CC
CC
D8
70
ENDCHAR

STARTCHAR w
ENCODING 119
SWIDTH 860 0
DWIDTH 12 0
BBX 11 7 1 0
BITMAP
2640
E6E0
6660
CEC0
CCC0
DD80
6700
ENDCHAR

STARTCHAR x
ENCODING 120
SWIDTH 620 0
DWIDTH 9 0
BBX 9 7 0 0
BITMAP
1980
3B80
0E00
1C00
3600
E680
C300
ENDCHAR

STARTCHAR y
ENCODING 121
SWIDTH 600 0
DWIDTH 8 0
BBX 9 10 -1 -3
BITMAP
0980
3980
1980
1980
3300
3700
1B00
4600
EE00
3C00
ENDCHAR

STARTCHAR z
ENCODING 122
SWIDTH 560 0
DWIDTH 8 0
BBX 8 7 1 0
BITMAP
3D
67
4E
38
62
F6
BC
ENDCHAR

STARTCHAR braceleft
ENCODING 123
SWIDTH 300 0
DWIDTH 4 0
BBX 5 13 0 -3
BITMAP
18
30
30
60
60
20
C0
20
60
60
C0
C0
60
ENDCHAR

STARTCHAR bar
ENCODING 124
SWIDTH 620 0
DWIDTH 9 0
BBX 2 13 4 -3
BITMAP
C0
C0
C0
C0
C0
C0
C0
C0
C0
C0
C0
C0
C0
ENDCHAR

STARTCHAR braceright
ENCODING 125
SWIDTH 300 0
DWIDTH 4 0
BBX 5 13 0 -3
BITMAP
30
18
18
30
30
20
18
20
30
30
60
60
C0
ENDCHAR

STARTCHAR asciitilde
ENCODING 126
SWIDTH 620 0
DWIDTH 9 0
BBX 7 2 2 4
BITMAP
F6
DE
ENDCHAR

STARTCHAR space
ENCODING 160
SWIDTH 340 0
DWIDTH 6 0
BBX 0 0 0 0
BITMAP
ENDCHAR

STARTCHAR Aogonek
ENCODING 161
SWIDTH 720 0
DWIDTH 10 0
BBX 10 12 0 -2
BITMAP
0300
0700
0780
0D80
0D80
1980
3F80
3180
6180
F3C0
0100
01C0
ENDCHAR

STARTCHAR breve
ENCODING 162
SWIDTH 460 0
DWIDTH 6 0
BBX 6 2 1 8
BITMAP
CC
78
ENDCHAR

STARTCHAR Lslash
ENCODING 163
SWIDTH 640 0
DWIDTH 9 0
BBX 9 10 0 0
BITMAP
3C00
1800
1800
3400
3800
7000
3000
6180
6380
FF00
ENDCHAR

STARTCHAR currency
ENCODING 164
SWIDTH 680 0
DWIDTH 8 0
BBX 8 8 0 1
BITMAP
81
7E
66
42
42
66
7E
81
ENDCHAR

STARTCHAR Lcaron
ENCODING 165
SWIDTH 640 0
DWIDTH 9 0
BBX 9 10 0 0
BITMAP
3D80
1900
1A00
3000
3000
3000
3000
6180
6380
FF00
ENDCHAR

STARTCHAR Sacute
ENCODING 166
SWIDTH 700 0
DWIDTH 10 0
BBX 9 13 1 0
BITMAP
0600
0C00
0000
3E80
7380
6180
7800
3E00
0F00
0700
C300
E700
BE00
ENDCHAR

STARTCHAR section
ENCODING 167
SWIDTH 620 0
DWIDTH 9 0
BBX 8 12 1 -2
BITMAP
1E
37
33
3C
6E
66
33
33
1B
CE
E6
7C
ENDCHAR

STARTCHAR dieresis
ENCODING 168
SWIDTH 520 0
DWIDTH 7 0
BBX 5 2 2 8
BITMAP
D8
D8
ENDCHAR

STARTCHAR Scaron
ENCODING 169
SWIDTH 700 0
DWIDTH 10 0
BBX 9 13 1 0
BITMAP
1B00
0E00
0000
3E80
7380
6180
7800
3E00
0F00
0700
C300
E700
BE00
ENDCHAR

STARTCHAR Scommaaccent
ENCODING 170
SWIDTH 700 0
DWIDTH 10 0
BBX 9 14 1 -4
BITMAP
3E80
7380
6180
7800
3E00
0F00
0700
C300
E700
BE00
0000
1800
0800
1000
ENDCHAR

STARTCHAR Tcaron
ENCODING 171
SWIDTH 700 0
DWIDTH 10 0
BBX 10 13 1 0
BITMAP
1B00
0E00
0000
7F80
EDC0
CCC0
1800
1800
1800
3000
3000
3000
7800
ENDCHAR

STARTCHAR Zacute
ENCODING 172
SWIDTH 680 0
DWIDTH 10 0
BBX 10 13 1 0
BITMAP
0300
0600
0000
3FC0
7380
6700
0E00
0C00
1C00
3800
7180
E380
FF00
ENDCHAR

STARTCHAR hyphen
ENCODING 173
SWIDTH 280 0
DWIDTH 4 0
BBX 3 2 1 2
BITMAP
E0
E0
ENDCHAR

STARTCHAR Zcaron
ENCODING 174
SWIDTH 680 0
DWIDTH 10 0
BBX 10 13 1 0
BITMAP
0D80
0700
0000
3FC0
7380
6700
0E00
0C00
1C00
3800
7180
E380
FF00
ENDCHAR

STARTCHAR Zdotaccent
ENCODING 175
SWIDTH 680 0
DWIDTH 10 0
BBX 10 13 1 0
BITMAP
0600
0600
0000
3FC0
7380
6700
0E00
0C00
1C00
3800
7180
E380
FF00
ENDCHAR

STARTCHAR degree
ENCODING 176
SWIDTH 400 0
DWIDTH 6 0
BBX 4 4 2 6
BITMAP
60
90
90
60
ENDCHAR

STARTCHAR aogonek
ENCODING 177
SWIDTH 680 0
DWIDTH 10 0
BBX 9 9 1 -2
BITMAP
3D00
6300
C300
C600
C600
EE80
7B00
0200
0380
ENDCHAR

STARTCHAR ogonek
ENCODING 178
SWIDTH 320 0
DWIDTH 4 0
BBX 3 2 1 -2
BITMAP
80
E0
ENDCHAR

STARTCHAR lslash
ENCODING 179
SWIDTH 380 0
DWIDTH 5 0
BBX 6 10 0 0
BITMAP
08
38
18
34
38
70
E0
60
68
30
ENDCHAR

STARTCHAR acute
ENCODING 180
SWIDTH 340 0
DWIDTH 5 0
BBX 3 2 2 8
BITMAP
60
C0
ENDCHAR

STARTCHAR lcaron
ENCODING 181
SWIDTH 492 0
DWIDTH 6 0
BBX 7 10 1 0
BITMAP
16
76
34
68
60
60
C0
C0
D0
60
ENDCHAR

STARTCHAR sacute
ENCODING 182
SWIDTH 540 0
DWIDTH 8 0
BBX 8 10 1 0
BITMAP
06
0C
00
3E
63
71
3C
8E
C6
7C
ENDCHAR

STARTCHAR caron
ENCODING 183
SWIDTH 480 0
DWIDTH 7 0
BBX 5 2 2 8
BITMAP
D8
70
ENDCHAR

STARTCHAR commaaccent
ENCODING 184
SWIDTH 333 0
DWIDTH 5 0
BBX 2 3 1 -4
BITMAP
C0
40
80
ENDCHAR

STARTCHAR scaron
ENCODING 185
SWIDTH 540 0
DWIDTH 8 0
BBX 8 10 1 0
BITMAP
1B
0E
00
3E
63
71
3C
8E
C6
7C
ENDCHAR

STARTCHAR scommaaccent
ENCODING 186
SWIDTH 540 0
DWIDTH 8 0
BBX 8 11 1 -4
BITMAP
3E
63
71
3C
8E
C6
7C
00
30
10
20
ENDCHAR

STARTCHAR tcaron
ENCODING 187
SWIDTH 541 0
DWIDTH 6 0
BBX 7 10 2 0
BITMAP
06
12
34
F8
60
60
C0
C0
D0
60
ENDCHAR

STARTCHAR zacute
ENCODING 188
SWIDTH 560 0
DWIDTH 8 0
BBX 8 10 1 0
BITMAP
06
0C
00
3D
67
4E
38
62
F6
BC
ENDCHAR

STARTCHAR hungarumlaut
ENCODING 189
SWIDTH 560 0
DWIDTH 8 0
BBX 5 4 3 6
BITMAP
48
D8
D8
90
ENDCHAR

STARTCHAR zcaron
ENCODING 190
SWIDTH 560 0
DWIDTH 8 0
BBX 8 10 1 0
BITMAP
36
1C
00
3D
67
4E
38
62
F6
BC
ENDCHAR

STARTCHAR zdotaccent
ENCODING 191
SWIDTH 560 0
DWIDTH 8 0
BBX 8 10 1 0
BITMAP
0C
0C
00
3D
67
4E
38
62
F6
BC
ENDCHAR

STARTCHAR Racute
ENCODING 192
SWIDTH 740 0
DWIDTH 10 0
BBX 11 13 0 0
BITMAP
0300
0600
0000
3F80
18C0
1860
3060
30C0
3F80
3300
6380
6180
F1E0
ENDCHAR

STARTCHAR Aacute
ENCODING 193
SWIDTH 720 0
DWIDTH 10 0
BBX 10 13 0 0
BITMAP
0180
0300
0000
0300
0700
0780
0D80
0D80
1980
3F80
3180
6180
F3C0
ENDCHAR

STARTCHAR Acircumflex
ENCODING 194
SWIDTH 720 0
DWIDTH 10 0
BBX 10 13 0 0
BITMAP
0380
06C0
0000
0300
0700
0780
0D80
0D80
1980
3F80
3180
6180
F3C0
ENDCHAR

STARTCHAR Abreve
ENCODING 195
SWIDTH 720 0
DWIDTH 10 0
BBX 10 13 0 0
BITMAP
0CC0
0780
0000
0300
0700
0780
0D80
0D80
1980
3F80
3180
6180
F3C0
ENDCHAR

STARTCHAR Adieresis
ENCODING 196
SWIDTH 720 0
DWIDTH 10 0
BBX 10 13 0 0
BITMAP
06C0
06C0
0000
0300
0700
0780
0D80
0D80
1980
3F80
3180
6180
F3C0
ENDCHAR

STARTCHAR Lacute
ENCODING 197
SWIDTH 640 0
DWIDTH 9 0
BBX 9 13 0 0
BITMAP
0600
0C00
0000
3C00
1800
1800
3000
3000
3000
3000
6180
6380
FF00
ENDCHAR

STARTCHAR Cacute
ENCODING 198
SWIDTH 700 0
DWIDTH 10 0
BBX 9 13 1 0
BITMAP
0600
0C00
0000
1F00
7380
6180
E000
C000
C000
C000
C300
E600
7C00
ENDCHAR

STARTCHAR Ccedilla
ENCODING 199
SWIDTH 700 0
DWIDTH 10 0
BBX 9 13 1 -3
BITMAP
1F00
7380
6180
E000
C000
C000
C000
C300
E600
7C00
1000
0800
3000
ENDCHAR

STARTCHAR Ccaron
ENCODING 200
SWIDTH 700 0
DWIDTH 10 0
BBX 9 13 1 0
BITMAP
1B00
0E00
0000
1F00
7380
6180
E000
C000
C000
C000
C300
E600
7C00
ENDCHAR

STARTCHAR Eacute
ENCODING 201
SWIDTH 720 0
DWIDTH 10 0
BBX 11 13 0 0
BITMAP
0300
0600
0000
3FC0
18E0
1860
3100
3F00
3300
3200
60C0
61C0
FF80
ENDCHAR

STARTCHAR Eogonek
ENCODING 202
SWIDTH 720 0
DWIDTH 10 0
BBX 11 12 0 -2
BITMAP
3FC0
18E0
1860
3100
3F00
3300
3200
60C0
61C0
FF80
0100
01C0
ENDCHAR

STARTCHAR Edieresis
ENCODING 203
SWIDTH 720 0
DWIDTH 10 0
BBX 11 13 0 0
BITMAP
0D80
0D80
0000
3FC0
18E0
1860
3100
3F00
3300
3200
60C0
61C0
FF80
ENDCHAR

STARTCHAR Ecaron
ENCODING 204
SWIDTH 720 0
DWIDTH 10 0
BBX 11 13 0 0
BITMAP
06C0
0380
0000
3FC0
18E0
1860
3100
3F00
3300
3200
60C0
61C0
FF80
ENDCHAR

STARTCHAR Iacute
ENCODING 205
SWIDTH 380 0
DWIDTH 5 0
BBX 6 13 0 0
BITMAP
0C
18
00
3C
18
18
30
30
30
30
60
60
F0
ENDCHAR

STARTCHAR Icircumflex
ENCODING 206
SWIDTH 380 0
DWIDTH 5 0
BBX 7 13 0 0
BITMAP
1C
36
00
3C
18
18
30
30
30
30
60
60
F0
ENDCHAR

STARTCHAR Dcaron
ENCODING 207
SWIDTH 760 0
DWIDTH 11 0
BBX 11 13 0 0
BITMAP
0D80
0700
0000
3F80
19C0
18E0
3060
3060
3060
3060
60C0
6180
FF00
ENDCHAR

STARTCHAR Dcroat
ENCODING 208
SWIDTH 760 0
DWIDTH 11 0
BBX 11 10 0 0
BITMAP
3F80
19C0
18E0
3060
7C60
3060
3060
60C0
6180
FF00
ENDCHAR

STARTCHAR Nacute
ENCODING 209
SWIDTH 740 0
DWIDTH 11 0
BBX 12 13 0 0
BITMAP
0180
0300
0000
3C70
1C20
1E20
3660
2740
2340
6340
43C0
4180
E180
ENDCHAR

STARTCHAR Ncaron
ENCODING 210
SWIDTH 740 0
DWIDTH 11 0
BBX 12 13 0 0
BITMAP
06C0
0380
0000
3C70
1C20
1E20
3660
2740
2340
6340
43C0
4180
E180
ENDCHAR

STARTCHAR Oacute
ENCODING 211
SWIDTH 760 0
DWIDTH 11 0
BBX 10 13 1 0
BITMAP
0300
0600
0000
1F00
3180
60C0
60C0
C0C0
C0C0
C180
C180
6300
3E00
ENDCHAR

STARTCHAR Ocircumflex
ENCODING 212
SWIDTH 760 0
DWIDTH 11 0
BBX 10 13 1 0
BITMAP
0700
0D80
0000
1F00
3180
60C0
60C0
C0C0
C0C0
C180
C180
6300
3E00
ENDCHAR

STARTCHAR Ohungarumlaut
ENCODING 213
SWIDTH 760 0
DWIDTH 11 0
BBX 10 13 1 0
BITMAP
0CC0
1980
0000
1F00
3180
60C0
60C0
C0C0
C0C0
C180
C180
6300
3E00
ENDCHAR

STARTCHAR Odieresis
ENCODING 214
SWIDTH 760 0
DWIDTH 11 0
BBX 10 13 1 0
BITMAP
1B00
1B00
0000
1F00
3180
60C0
60C0
C0C0
C0C0
C180
C180
6300
3E00
ENDCHAR

STARTCHAR multiply
ENCODING 215
SWIDTH 600 0
DWIDTH 8 0
BBX 7 6 1 2
BITMAP
C6
6C
38
38
6C
C6
ENDCHAR

STARTCHAR Rcaron
ENCODING 216
SWIDTH 740 0
DWIDTH 10 0
BBX 11 13 0 0
BITMAP
0D80
0700
0000
3F80
18C0
1860
3060
30C0
3F80
3300
6380
6180
F1E0
ENDCHAR

STARTCHAR Uring
ENCODING 217
SWIDTH 740 0
DWIDTH 11 0
BBX 11 14 1 0
BITMAP
0200
0500
0200
0000
78E0
3040
3040
60C0
6080
6080
C180
C100
E300
7E00
ENDCHAR

STARTCHAR Uacute
ENCODING 218
SWIDTH 740 0
DWIDTH 11 0
BBX 11 13 1 0
BITMAP
0180
0300
0000
78E0
3040
3040
60C0
6080
6080
C180
C100
E300
7E00
ENDCHAR

STARTCHAR Uhungarumlaut
ENCODING 219
SWIDTH 740 0
DWIDTH 11 0
BBX 11 13 1 0
BITMAP
0660
0CC0
0000
78E0
3040
3040
60C0
6080
6080
C180
C100
E300
7E00
ENDCHAR

STARTCHAR Udieresis
ENCODING 220
SWIDTH 740 0
DWIDTH 11 0
BBX 11 13 1 0
BITMAP
0CC0
0CC0
0000
78E0
3040
3040
60C0
6080
6080
C180
C100
E300
7E00
ENDCHAR

STARTCHAR Yacute
ENCODING 221
SWIDTH 660 0
DWIDTH 9 0
BBX 9 13 2 0
BITMAP
0600
0C00
0000
F780
6300
6600
6600
6C00
3800
3800
3000
3000
7800
ENDCHAR

STARTCHAR Tcommaaccent
ENCODING 222
SWIDTH 700 0
DWIDTH 10 0
BBX 10 14 1 -4
BITMAP
7F80
EDC0
CCC0
1800
1800
1800
3000
3000
3000
7800
0000
3000
1000
2000
ENDCHAR

STARTCHAR germandbls
ENCODING 223
SWIDTH 660 0
DWIDTH 9 0
BBX 11 13 -1 -3
BITMAP
03C0
0660
06C0
1F80
0D80
0DC0
0CE0
0C60
0D60
1BC0
1800
D800
7000
ENDCHAR

STARTCHAR racute
ENCODING 224
SWIDTH 500 0
DWIDTH 7 0
BBX 7 10 1 0
BITMAP
0C
18
00
36
FC
30
30
60
60
60
ENDCHAR

STARTCHAR aacute
ENCODING 225
SWIDTH 680 0
DWIDTH 10 0
BBX 9 10 1 0
BITMAP
0600
0C00
0000
3D00
6300
C300
C600
C600
EE80
7B00
ENDCHAR

STARTCHAR acircumflex
ENCODING 226
SWIDTH 680 0
DWIDTH 10 0
BBX 9 10 1 0
BITMAP
0E00
1B00
0000
3D00
6300
C300
C600
C600
EE80
7B00
ENDCHAR

STARTCHAR abreve
ENCODING 227
SWIDTH 680 0
DWIDTH 10 0
BBX 9 10 1 0
BITMAP
3300
1E00
0000
3D00
6300
C300
C600
C600
EE80
7B00
ENDCHAR

STARTCHAR adieresis
ENCODING 228
SWIDTH 680 0
DWIDTH 10 0
BBX 9 10 1 0
BITMAP
3600
3600
0000
3D00
6300
C300
C600
C600
EE80
7B00
ENDCHAR

STARTCHAR lacute
ENCODING 229
SWIDTH 380 0
DWIDTH 5 0
BBX 6 13 1 0
BITMAP
0C
18
00
10
70
30
60
60
60
C0
C0
D0
60
ENDCHAR

STARTCHAR cacute
ENCODING 230
SWIDTH 560 0
DWIDTH 8 0
BBX 7 10 1 0
BITMAP
0C
18
00
1C
76
62
C0
C4
EC
78
ENDCHAR

STARTCHAR ccedilla
ENCODING 231
SWIDTH 560 0
DWIDTH 8 0
BBX 7 10 1 -3
BITMAP
1C
76
62
C0
C4
EC
78
20
10
60
ENDCHAR

STARTCHAR ccaron
ENCODING 232
SWIDTH 560 0
DWIDTH 8 0
BBX 7 10 1 0
BITMAP
36
1C
00
1C
76
62
C0
C4
EC
78
ENDCHAR

STARTCHAR eacute
ENCODING 233
SWIDTH 560 0
DWIDTH 8 0
BBX 7 10 1 0
BITMAP
0C
18
00
3C
66
CC
F8
C4
EC
78
ENDCHAR

STARTCHAR eogonek
ENCODING 234
SWIDTH 560 0
DWIDTH 8 0
BBX 7 9 1 -2
BITMAP
3C
66
CC
F8
C4
EC
78
10
1C
ENDCHAR

STARTCHAR edieresis
ENCODING 235
SWIDTH 560 0
DWIDTH 8 0
BBX 7 10 1 0
BITMAP
36
36
00
3C
66
CC
F8
C4
EC
78
ENDCHAR

STARTCHAR ecaron
ENCODING 236
SWIDTH 560 0
DWIDTH 8 0
BBX 7 10 1 0
BITMAP
36
1C
00
3C
66
CC
F8
C4
EC
78
ENDCHAR

STARTCHAR iacute
ENCODING 237
SWIDTH 380 0
DWIDTH 5 0
BBX 4 10 1 0
BITMAP
30
60
00
20
E0
60
60
C0
D0
60
ENDCHAR

STARTCHAR icircumflex
ENCODING 238
SWIDTH 380 0
DWIDTH 5 0
BBX 5 10 1 0
BITMAP
70
D8
00
20
E0
60
60
C0
D0
60
ENDCHAR

STARTCHAR dcaron
ENCODING 239
SWIDTH 798 0
DWIDTH 11 0
BBX 12 10 1 0
BITMAP
00B0
03B0
01A0
1DC0
7300
E300
C300
C600
EE80
7300
ENDCHAR

STARTCHAR dcroat
ENCODING 240
SWIDTH 680 0
DWIDTH 10 0
BBX 9 10 1 0
BITMAP
0100
0780
0300
1F00
7300
E600
C600
C600
EE80
7300
ENDCHAR

STARTCHAR nacute
ENCODING 241
SWIDTH 680 0
DWIDTH 10 0
BBX 9 10 1 0
BITMAP
0600
0C00
0000
2E00
F700
6300
6300
C600
C680
C300
ENDCHAR

STARTCHAR ncaron
ENCODING 242
SWIDTH 680 0
DWIDTH 10 0
BBX 9 10 1 0
BITMAP
1B00
0E00
0000
2E00
F700
6300
6300
C600
C680
C300
ENDCHAR

STARTCHAR oacute
ENCODING 243
SWIDTH 600 0
DWIDTH 8 0
BBX 7 10 1 0
BITMAP
0C
18
00
3C
66
C6
C6
C6
CC
78
ENDCHAR

STARTCHAR ocircumflex
ENCODING 244
SWIDTH 600 0
DWIDTH 8 0
BBX 7 10 1 0
BITMAP
1C
36
00
3C
66
C6
C6
C6
CC
78
ENDCHAR

STARTCHAR ohungarumlaut
ENCODING 245
SWIDTH 600 0
DWIDTH 8 0
BBX 8 10 1 0
BITMAP
33
66
00
3C
66
C6
C6
C6
CC
78
ENDCHAR

STARTCHAR odieresis
ENCODING 246
SWIDTH 600 0
DWIDTH 8 0
BBX 7 10 1 0
BITMAP
36
36
00
3C
66
C6
C6
C6
CC
78
ENDCHAR

STARTCHAR divide
ENCODING 247
SWIDTH 600 0
DWIDTH 8 0
BBX 6 7 2 1
BITMAP
30
30
00
FC
00
30
30
ENDCHAR

STARTCHAR rcaron
ENCODING 248
SWIDTH 500 0
DWIDTH 7 0
BBX 7 10 1 0
BITMAP
0C
18
00
36
FC
30
30
60
60
60
ENDCHAR

STARTCHAR uring
ENCODING 249
SWIDTH 680 0
DWIDTH 10 0
BBX 9 10 1 0
BITMAP
0800
1400
0800
2300
E300
6300
C600
C600
E680
7B00
ENDCHAR

STARTCHAR uacute
ENCODING 250
SWIDTH 680 0
DWIDTH 10 0
BBX 9 10 1 0
BITMAP
0600
0C00
0000
2300
E300
6300
C600
C600
E680
7B00
ENDCHAR

STARTCHAR uhungarumlaut
ENCODING 251
SWIDTH 680 0
DWIDTH 10 0
BBX 9 10 1 0
BITMAP
1980
3300
0000
2300
E300
6300
C600
C600
E680
7B00
ENDCHAR

STARTCHAR udieresis
ENCODING 252
SWIDTH 680 0
DWIDTH 10 0
BBX 9 10 1 0
BITMAP
3300
3300
0000
2300
E300
6300
C600
C600
E680
7B00
ENDCHAR

STARTCHAR yacute
ENCODING 253
SWIDTH 600 0
DWIDTH 8 0
BBX 9 13 -1 -3
BITMAP
0300
0600
0000
0980
3980
1980
1980
3300
3700
1B00
4600
EE00
3C00
ENDCHAR

STARTCHAR tcommaaccent
ENCODING 254
SWIDTH 440 0
DWIDTH 6 0
BBX 5 13 2 -4
BITMAP
10
30
F8
60
60
C0
C0
D0
60
00
C0
40
80
ENDCHAR

STARTCHAR dotaccent
ENCODING 255
SWIDTH 380 0
DWIDTH 5 0
BBX 2 2 2 8
BITMAP
C0
C0
ENDCHAR
ENDFONT
